<svg class="rich-terminal" viewBox="0 0 1287 782.0" xmlns="http://www.w3.org/2000/svg">
    <!-- Generated with Rich https://www.textualize.io -->
    <style>

    @font-face {
        font-family: "Fira Code";
        src: local("FiraCode-Regular"),
                url("https://cdnjs.cloudflare.com/ajax/libs/firacode/6.2.0/woff2/FiraCode-Regular.woff2") format("woff2"),
                url("https://cdnjs.cloudflare.com/ajax/libs/firacode/6.2.0/woff/FiraCode-Regular.woff") format("woff");
        font-style: normal;
        font-weight: 400;
    }
    @font-face {
        font-family: "Fira Code";
        src: local("FiraCode-Bold"),
                url("https://cdnjs.cloudflare.com/ajax/libs/firacode/6.2.0/woff2/FiraCode-Bold.woff2") format("woff2"),
                url("https://cdnjs.cloudflare.com/ajax/libs/firacode/6.2.0/woff/FiraCode-Bold.woff") format("woff");
        font-style: bold;
        font-weight: 700;
    }

    .terminal-577764163-matrix {
        font-family: Fira Code, monospace;
        font-size: 20px;
        line-height: 24.4px;
        font-variant-east-asian: full-width;
    }

    .terminal-577764163-title {
        font-size: 18px;
        font-weight: bold;
        font-family: arial;
    }

    .terminal-577764163-r1 { fill: #e0e0e0 }
.terminal-577764163-r2 { fill: #646464 }
.terminal-577764163-r3 { fill: #4a4c4d }
.terminal-577764163-r4 { fill: #595a5a }
.terminal-577764163-r5 { fill: #c5c8c6 }
.terminal-577764163-r6 { fill: #3b3b3b }
.terminal-577764163-r7 { fill: #63696e;font-weight: bold }
.terminal-577764163-r8 { fill: #2a2a2a }
.terminal-577764163-r9 { fill: #0b3a5f }
.terminal-577764163-r10 { fill: #646464;font-weight: bold }
.terminal-577764163-r11 { fill: #121212 }
.terminal-577764163-r12 { fill: #1e1e1e }
.terminal-577764163-r13 { fill: #0178d4 }
.terminal-577764163-r14 { fill: #6db2ff }
.terminal-577764163-r15 { fill: #2d2d2d }
.terminal-577764163-r16 { fill: #ddedf9;font-weight: bold }
.terminal-577764163-r17 { fill: #e0e0e0;font-weight: bold }
.terminal-577764163-r18 { fill: #004295 }
.terminal-577764163-r19 { fill: #0d0d0d }
.terminal-577764163-r20 { fill: #704d1c;font-weight: bold }
.terminal-577764163-r21 { fill: #282b2e }
    </style>

    <defs>
    <clipPath id="terminal-577764163-clip-terminal">
      <rect x="0" y="0" width="1267.8" height="731.0" />
    </clipPath>
    <clipPath id="terminal-577764163-line-0">
    <rect x="0" y="1.5" width="1268.8" height="24.65"/>
            </clipPath>
<clipPath id="terminal-577764163-line-1">
    <rect x="0" y="25.9" width="1268.8" height="24.65"/>
            </clipPath>
<clipPath id="terminal-577764163-line-2">
    <rect x="0" y="50.3" width="1268.8" height="24.65"/>
            </clipPath>
<clipPath id="terminal-577764163-line-3">
    <rect x="0" y="74.7" width="1268.8" height="24.65"/>
            </clipPath>
<clipPath id="terminal-577764163-line-4">
    <rect x="0" y="99.1" width="1268.8" height="24.65"/>
            </clipPath>
<clipPath id="terminal-577764163-line-5">
    <rect x="0" y="123.5" width="1268.8" height="24.65"/>
            </clipPath>
<clipPath id="terminal-577764163-line-6">
    <rect x="0" y="147.9" width="1268.8" height="24.65"/>
            </clipPath>
<clipPath id="terminal-577764163-line-7">
    <rect x="0" y="172.3" width="1268.8" height="24.65"/>
            </clipPath>
<clipPath id="terminal-577764163-line-8">
    <rect x="0" y="196.7" width="1268.8" height="24.65"/>
            </clipPath>
<clipPath id="terminal-577764163-line-9">
    <rect x="0" y="221.1" width="1268.8" height="24.65"/>
            </clipPath>
<clipPath id="terminal-577764163-line-10">
    <rect x="0" y="245.5" width="1268.8" height="24.65"/>
            </clipPath>
<clipPath id="terminal-577764163-line-11">
    <rect x="0" y="269.9" width="1268.8" height="24.65"/>
            </clipPath>
<clipPath id="terminal-577764163-line-12">
    <rect x="0" y="294.3" width="1268.8" height="24.65"/>
            </clipPath>
<clipPath id="terminal-577764163-line-13">
    <rect x="0" y="318.7" width="1268.8" height="24.65"/>
            </clipPath>
<clipPath id="terminal-577764163-line-14">
    <rect x="0" y="343.1" width="1268.8" height="24.65"/>
            </clipPath>
<clipPath id="terminal-577764163-line-15">
    <rect x="0" y="367.5" width="1268.8" height="24.65"/>
            </clipPath>
<clipPath id="terminal-577764163-line-16">
    <rect x="0" y="391.9" width="1268.8" height="24.65"/>
            </clipPath>
<clipPath id="terminal-577764163-line-17">
    <rect x="0" y="416.3" width="1268.8" height="24.65"/>
            </clipPath>
<clipPath id="terminal-577764163-line-18">
    <rect x="0" y="440.7" width="1268.8" height="24.65"/>
            </clipPath>
<clipPath id="terminal-577764163-line-19">
    <rect x="0" y="465.1" width="1268.8" height="24.65"/>
            </clipPath>
<clipPath id="terminal-577764163-line-20">
    <rect x="0" y="489.5" width="1268.8" height="24.65"/>
            </clipPath>
<clipPath id="terminal-577764163-line-21">
    <rect x="0" y="513.9" width="1268.8" height="24.65"/>
            </clipPath>
<clipPath id="terminal-577764163-line-22">
    <rect x="0" y="538.3" width="1268.8" height="24.65"/>
            </clipPath>
<clipPath id="terminal-577764163-line-23">
    <rect x="0" y="562.7" width="1268.8" height="24.65"/>
            </clipPath>
<clipPath id="terminal-577764163-line-24">
    <rect x="0" y="587.1" width="1268.8" height="24.65"/>
            </clipPath>
<clipPath id="terminal-577764163-line-25">
    <rect x="0" y="611.5" width="1268.8" height="24.65"/>
            </clipPath>
<clipPath id="terminal-577764163-line-26">
    <rect x="0" y="635.9" width="1268.8" height="24.65"/>
            </clipPath>
<clipPath id="terminal-577764163-line-27">
    <rect x="0" y="660.3" width="1268.8" height="24.65"/>
            </clipPath>
<clipPath id="terminal-577764163-line-28">
    <rect x="0" y="684.7" width="1268.8" height="24.65"/>
            </clipPath>
    </defs>

    <rect fill="#292929" stroke="rgba(255,255,255,0.35)" stroke-width="1" x="1" y="1" width="1285" height="780" rx="8"/><text class="terminal-577764163-title" fill="#c5c8c6" text-anchor="middle" x="642" y="27">cs-tui&#160;—&#160;Create&#160;codespace</text>
            <g transform="translate(26,22)">
            <circle cx="0" cy="0" r="7" fill="#ff5f57"/>
            <circle cx="22" cy="0" r="7" fill="#febc2e"/>
            <circle cx="44" cy="0" r="7" fill="#28c840"/>
            </g>
        
    <g transform="translate(9, 41)" clip-path="url(#terminal-577764163-clip-terminal)">
    <rect fill="#191d21" x="0" y="1.5" width="12.2" height="24.65" shape-rendering="crispEdges"/><rect fill="#191d21" x="12.2" y="1.5" width="12.2" height="24.65" shape-rendering="crispEdges"/><rect fill="#191d21" x="24.4" y="1.5" width="61" height="24.65" shape-rendering="crispEdges"/><rect fill="#191d21" x="85.4" y="1.5" width="12.2" height="24.65" shape-rendering="crispEdges"/><rect fill="#191d21" x="97.6" y="1.5" width="305" height="24.65" shape-rendering="crispEdges"/><rect fill="#191d21" x="402.6" y="1.5" width="97.6" height="24.65" shape-rendering="crispEdges"/><rect fill="#191d21" x="500.2" y="1.5" width="36.6" height="24.65" shape-rendering="crispEdges"/><rect fill="#191d21" x="536.8" y="1.5" width="292.8" height="24.65" shape-rendering="crispEdges"/><rect fill="#191d21" x="829.6" y="1.5" width="317.2" height="24.65" shape-rendering="crispEdges"/><rect fill="#1c2024" x="1146.8" y="1.5" width="12.2" height="24.65" shape-rendering="crispEdges"/><rect fill="#1c2024" x="1159" y="1.5" width="97.6" height="24.65" shape-rendering="crispEdges"/><rect fill="#1c2024" x="1256.6" y="1.5" width="12.2" height="24.65" shape-rendering="crispEdges"/><rect fill="#121212" x="0" y="25.9" width="12.2" height="24.65" shape-rendering="crispEdges"/><rect fill="#121212" x="12.2" y="25.9" width="85.4" height="24.65" shape-rendering="crispEdges"/><rect fill="#121212" x="97.6" y="25.9" width="12.2" height="24.65" shape-rendering="crispEdges"/><rect fill="#0b3a5f" x="109.8" y="25.9" width="12.2" height="24.65" shape-rendering="crispEdges"/><rect fill="#0b3a5f" x="122" y="25.9" width="122" height="24.65" shape-rendering="crispEdges"/><rect fill="#0b3a5f" x="244" y="25.9" width="12.2" height="24.65" shape-rendering="crispEdges"/><rect fill="#121212" x="256.2" y="25.9" width="12.2" height="24.65" shape-rendering="crispEdges"/><rect fill="#121212" x="268.4" y="25.9" width="73.2" height="24.65" shape-rendering="crispEdges"/><rect fill="#121212" x="341.6" y="25.9" width="12.2" height="24.65" shape-rendering="crispEdges"/><rect fill="#121212" x="353.8" y="25.9" width="12.2" height="24.65" shape-rendering="crispEdges"/><rect fill="#121212" x="366" y="25.9" width="134.2" height="24.65" shape-rendering="crispEdges"/><rect fill="#121212" x="500.2" y="25.9" width="12.2" height="24.65" shape-rendering="crispEdges"/><rect fill="#121212" x="512.4" y="25.9" width="12.2" height="24.65" shape-rendering="crispEdges"/><rect fill="#121212" x="524.6" y="25.9" width="48.8" height="24.65" shape-rendering="crispEdges"/><rect fill="#121212" x="573.4" y="25.9" width="12.2" height="24.65" shape-rendering="crispEdges"/><rect fill="#121212" x="585.6" y="25.9" width="683.2" height="24.65" shape-rendering="crispEdges"/><rect fill="#121212" x="0" y="50.3" width="109.8" height="24.65" shape-rendering="crispEdges"/><rect fill="#121212" x="109.8" y="50.3" width="12.2" height="24.65" shape-rendering="crispEdges"/><rect fill="#121212" x="122" y="50.3" width="122" height="24.65" shape-rendering="crispEdges"/><rect fill="#121212" x="244" y="50.3" width="12.2" height="24.65" shape-rendering="crispEdges"/><rect fill="#121212" x="256.2" y="50.3" width="1012.6" height="24.65" shape-rendering="crispEdges"/><rect fill="#191d21" x="0" y="74.7" width="109.8" height="24.65" shape-rendering="crispEdges"/><rect fill="#191d21" x="109.8" y="74.7" width="134.2" height="24.65" shape-rendering="crispEdges"/><rect fill="#191d21" x="244" y="74.7" width="146.4" height="24.65" shape-rendering="crispEdges"/><rect fill="#191d21" x="390.4" y="74.7" width="146.4" height="24.65" shape-rendering="crispEdges"/><rect fill="#191d21" x="536.8" y="74.7" width="732" height="24.65" shape-rendering="crispEdges"/><rect fill="#161616" x="0" y="99.1" width="1268.8" height="24.65" shape-rendering="crispEdges"/><rect fill="#161616" x="0" y="123.5" width="1268.8" height="24.65" shape-rendering="crispEdges"/><rect fill="#161616" x="0" y="147.9" width="1268.8" height="24.65" shape-rendering="crispEdges"/><rect fill="#161616" x="0" y="172.3" width="1268.8" height="24.65" shape-rendering="crispEdges"/><rect fill="#161616" x="0" y="196.7" width="207.4" height="24.65" shape-rendering="crispEdges"/><rect fill="#1e1e1e" x="207.4" y="196.7" width="12.2" height="24.65" shape-rendering="crispEdges"/><rect fill="#1e1e1e" x="219.6" y="196.7" width="829.6" height="24.65" shape-rendering="crispEdges"/><rect fill="#1e1e1e" x="1049.2" y="196.7" width="12.2" height="24.65" shape-rendering="crispEdges"/><rect fill="#161616" x="1061.4" y="196.7" width="207.4" height="24.65" shape-rendering="crispEdges"/><rect fill="#161616" x="0" y="221.1" width="207.4" height="24.65" shape-rendering="crispEdges"/><rect fill="#1e1e1e" x="207.4" y="221.1" width="12.2" height="24.65" shape-rendering="crispEdges"/><rect fill="#1e1e1e" x="219.6" y="221.1" width="829.6" height="24.65" shape-rendering="crispEdges"/><rect fill="#1e1e1e" x="1049.2" y="221.1" width="12.2" height="24.65" shape-rendering="crispEdges"/><rect fill="#161616" x="1061.4" y="221.1" width="207.4" height="24.65" shape-rendering="crispEdges"/><rect fill="#161616" x="0" y="245.5" width="207.4" height="24.65" shape-rendering="crispEdges"/><rect fill="#1e1e1e" x="207.4" y="245.5" width="12.2" height="24.65" shape-rendering="crispEdges"/><rect fill="#1e1e1e" x="219.6" y="245.5" width="24.4" height="24.65" shape-rendering="crispEdges"/><rect fill="#1e1e1e" x="244" y="245.5" width="561.2" height="24.65" shape-rendering="crispEdges"/><rect fill="#1e1e1e" x="805.2" y="245.5" width="219.6" height="24.65" shape-rendering="crispEdges"/><rect fill="#1e1e1e" x="1024.8" y="245.5" width="24.4" height="24.65" shape-rendering="crispEdges"/><rect fill="#1e1e1e" x="1049.2" y="245.5" width="12.2" height="24.65" shape-rendering="crispEdges"/><rect fill="#161616" x="1061.4" y="245.5" width="207.4" height="24.65" shape-rendering="crispEdges"/><rect fill="#161616" x="0" y="269.9" width="207.4" height="24.65" shape-rendering="crispEdges"/><rect fill="#1e1e1e" x="207.4" y="269.9" width="12.2" height="24.65" shape-rendering="crispEdges"/><rect fill="#1e1e1e" x="219.6" y="269.9" width="24.4" height="24.65" shape-rendering="crispEdges"/><rect fill="#1e1e1e" x="244" y="269.9" width="561.2" height="24.65" shape-rendering="crispEdges"/><rect fill="#1e1e1e" x="805.2" y="269.9" width="219.6" height="24.65" shape-rendering="crispEdges"/><rect fill="#1e1e1e" x="1024.8" y="269.9" width="24.4" height="24.65" shape-rendering="crispEdges"/><rect fill="#1e1e1e" x="1049.2" y="269.9" width="12.2" height="24.65" shape-rendering="crispEdges"/><rect fill="#161616" x="1061.4" y="269.9" width="207.4" height="24.65" shape-rendering="crispEdges"/><rect fill="#161616" x="0" y="294.3" width="207.4" height="24.65" shape-rendering="crispEdges"/><rect fill="#1e1e1e" x="207.4" y="294.3" width="12.2" height="24.65" shape-rendering="crispEdges"/><rect fill="#1e1e1e" x="219.6" y="294.3" width="24.4" height="24.65" shape-rendering="crispEdges"/><rect fill="#1e1e1e" x="244" y="294.3" width="780.8" height="24.65" shape-rendering="crispEdges"/><rect fill="#1e1e1e" x="1024.8" y="294.3" width="24.4" height="24.65" shape-rendering="crispEdges"/><rect fill="#1e1e1e" x="1049.2" y="294.3" width="12.2" height="24.65" shape-rendering="crispEdges"/><rect fill="#161616" x="1061.4" y="294.3" width="207.4" height="24.65" shape-rendering="crispEdges"/><rect fill="#161616" x="0" y="318.7" width="207.4" height="24.65" shape-rendering="crispEdges"/><rect fill="#1e1e1e" x="207.4" y="318.7" width="12.2" height="24.65" shape-rendering="crispEdges"/><rect fill="#1e1e1e" x="219.6" y="318.7" width="24.4" height="24.65" shape-rendering="crispEdges"/><rect fill="#0178d4" x="244" y="318.7" width="12.2" height="24.65" shape-rendering="crispEdges"/><rect fill="#272727" x="256.2" y="318.7" width="756.4" height="24.65" shape-rendering="crispEdges"/><rect fill="#1e1e1e" x="1012.6" y="318.7" width="12.2" height="24.65" shape-rendering="crispEdges"/><rect fill="#1e1e1e" x="1024.8" y="318.7" width="24.4" height="24.65" shape-rendering="crispEdges"/><rect fill="#1e1e1e" x="1049.2" y="318.7" width="12.2" height="24.65" shape-rendering="crispEdges"/><rect fill="#161616" x="1061.4" y="318.7" width="207.4" height="24.65" shape-rendering="crispEdges"/><rect fill="#161616" x="0" y="343.1" width="207.4" height="24.65" shape-rendering="crispEdges"/><rect fill="#1e1e1e" x="207.4" y="343.1" width="12.2" height="24.65" shape-rendering="crispEdges"/><rect fill="#1e1e1e" x="219.6" y="343.1" width="24.4" height="24.65" shape-rendering="crispEdges"/><rect fill="#0178d4" x="244" y="343.1" width="12.2" height="24.65" shape-rendering="crispEdges"/><rect fill="#272727" x="256.2" y="343.1" width="24.4" height="24.65" shape-rendering="crispEdges"/><rect fill="#2d4e74" x="280.6" y="343.1" width="280.6" height="24.65" shape-rendering="crispEdges"/><rect fill="#e0e0e0" x="561.2" y="343.1" width="12.2" height="24.65" shape-rendering="crispEdges"/><rect fill="#272727" x="573.4" y="343.1" width="414.8" height="24.65" shape-rendering="crispEdges"/><rect fill="#272727" x="988.2" y="343.1" width="24.4" height="24.65" shape-rendering="crispEdges"/><rect fill="#1e1e1e" x="1012.6" y="343.1" width="12.2" height="24.65" shape-rendering="crispEdges"/><rect fill="#1e1e1e" x="1024.8" y="343.1" width="24.4" height="24.65" shape-rendering="crispEdges"/><rect fill="#1e1e1e" x="1049.2" y="343.1" width="12.2" height="24.65" shape-rendering="crispEdges"/><rect fill="#161616" x="1061.4" y="343.1" width="207.4" height="24.65" shape-rendering="crispEdges"/><rect fill="#161616" x="0" y="367.5" width="207.4" height="24.65" shape-rendering="crispEdges"/><rect fill="#1e1e1e" x="207.4" y="367.5" width="12.2" height="24.65" shape-rendering="crispEdges"/><rect fill="#1e1e1e" x="219.6" y="367.5" width="24.4" height="24.65" shape-rendering="crispEdges"/><rect fill="#0178d4" x="244" y="367.5" width="12.2" height="24.65" shape-rendering="crispEdges"/><rect fill="#272727" x="256.2" y="367.5" width="756.4" height="24.65" shape-rendering="crispEdges"/><rect fill="#1e1e1e" x="1012.6" y="367.5" width="12.2" height="24.65" shape-rendering="crispEdges"/><rect fill="#1e1e1e" x="1024.8" y="367.5" width="24.4" height="24.65" shape-rendering="crispEdges"/><rect fill="#1e1e1e" x="1049.2" y="367.5" width="12.2" height="24.65" shape-rendering="crispEdges"/><rect fill="#161616" x="1061.4" y="367.5" width="207.4" height="24.65" shape-rendering="crispEdges"/><rect fill="#161616" x="0" y="391.9" width="207.4" height="24.65" shape-rendering="crispEdges"/><rect fill="#1e1e1e" x="207.4" y="391.9" width="12.2" height="24.65" shape-rendering="crispEdges"/><rect fill="#1e1e1e" x="219.6" y="391.9" width="24.4" height="24.65" shape-rendering="crispEdges"/><rect fill="#1e1e1e" x="244" y="391.9" width="780.8" height="24.65" shape-rendering="crispEdges"/><rect fill="#1e1e1e" x="1024.8" y="391.9" width="24.4" height="24.65" shape-rendering="crispEdges"/><rect fill="#1e1e1e" x="1049.2" y="391.9" width="12.2" height="24.65" shape-rendering="crispEdges"/><rect fill="#161616" x="1061.4" y="391.9" width="207.4" height="24.65" shape-rendering="crispEdges"/><rect fill="#161616" x="0" y="416.3" width="207.4" height="24.65" shape-rendering="crispEdges"/><rect fill="#1e1e1e" x="207.4" y="416.3" width="12.2" height="24.65" shape-rendering="crispEdges"/><rect fill="#1e1e1e" x="219.6" y="416.3" width="24.4" height="24.65" shape-rendering="crispEdges"/><rect fill="#0178d4" x="244" y="416.3" width="378.2" height="24.65" shape-rendering="crispEdges"/><rect fill="#1e1e1e" x="622.2" y="416.3" width="24.4" height="24.65" shape-rendering="crispEdges"/><rect fill="#1e1e1e" x="646.6" y="416.3" width="378.2" height="24.65" shape-rendering="crispEdges"/><rect fill="#1e1e1e" x="1024.8" y="416.3" width="24.4" height="24.65" shape-rendering="crispEdges"/><rect fill="#1e1e1e" x="1049.2" y="416.3" width="12.2" height="24.65" shape-rendering="crispEdges"/><rect fill="#161616" x="1061.4" y="416.3" width="207.4" height="24.65" shape-rendering="crispEdges"/><rect fill="#161616" x="0" y="440.7" width="207.4" height="24.65" shape-rendering="crispEdges"/><rect fill="#1e1e1e" x="207.4" y="440.7" width="12.2" height="24.65" shape-rendering="crispEdges"/><rect fill="#1e1e1e" x="219.6" y="440.7" width="24.4" height="24.65" shape-rendering="crispEdges"/><rect fill="#0178d4" x="244" y="440.7" width="158.6" height="24.65" shape-rendering="crispEdges"/><rect fill="#0178d4" x="402.6" y="440.7" width="48.8" height="24.65" shape-rendering="crispEdges"/><rect fill="#0178d4" x="451.4" y="440.7" width="170.8" height="24.65" shape-rendering="crispEdges"/><rect fill="#1e1e1e" x="622.2" y="440.7" width="24.4" height="24.65" shape-rendering="crispEdges"/><rect fill="#1e1e1e" x="646.6" y="440.7" width="134.2" height="24.65" shape-rendering="crispEdges"/><rect fill="#1e1e1e" x="780.8" y="440.7" width="97.6" height="24.65" shape-rendering="crispEdges"/><rect fill="#1e1e1e" x="878.4" y="440.7" width="146.4" height="24.65" shape-rendering="crispEdges"/><rect fill="#1e1e1e" x="1024.8" y="440.7" width="24.4" height="24.65" shape-rendering="crispEdges"/><rect fill="#1e1e1e" x="1049.2" y="440.7" width="12.2" height="24.65" shape-rendering="crispEdges"/><rect fill="#161616" x="1061.4" y="440.7" width="207.4" height="24.65" shape-rendering="crispEdges"/><rect fill="#161616" x="0" y="465.1" width="207.4" height="24.65" shape-rendering="crispEdges"/><rect fill="#1e1e1e" x="207.4" y="465.1" width="12.2" height="24.65" shape-rendering="crispEdges"/><rect fill="#1e1e1e" x="219.6" y="465.1" width="24.4" height="24.65" shape-rendering="crispEdges"/><rect fill="#0178d4" x="244" y="465.1" width="378.2" height="24.65" shape-rendering="crispEdges"/><rect fill="#1e1e1e" x="622.2" y="465.1" width="24.4" height="24.65" shape-rendering="crispEdges"/><rect fill="#1e1e1e" x="646.6" y="465.1" width="378.2" height="24.65" shape-rendering="crispEdges"/><rect fill="#1e1e1e" x="1024.8" y="465.1" width="24.4" height="24.65" shape-rendering="crispEdges"/><rect fill="#1e1e1e" x="1049.2" y="465.1" width="12.2" height="24.65" shape-rendering="crispEdges"/><rect fill="#161616" x="1061.4" y="465.1" width="207.4" height="24.65" shape-rendering="crispEdges"/><rect fill="#161616" x="0" y="489.5" width="207.4" height="24.65" shape-rendering="crispEdges"/><rect fill="#1e1e1e" x="207.4" y="489.5" width="12.2" height="24.65" shape-rendering="crispEdges"/><rect fill="#1e1e1e" x="219.6" y="489.5" width="829.6" height="24.65" shape-rendering="crispEdges"/><rect fill="#1e1e1e" x="1049.2" y="489.5" width="12.2" height="24.65" shape-rendering="crispEdges"/><rect fill="#161616" x="1061.4" y="489.5" width="207.4" height="24.65" shape-rendering="crispEdges"/><rect fill="#161616" x="0" y="513.9" width="207.4" height="24.65" shape-rendering="crispEdges"/><rect fill="#1e1e1e" x="207.4" y="513.9" width="12.2" height="24.65" shape-rendering="crispEdges"/><rect fill="#1e1e1e" x="219.6" y="513.9" width="829.6" height="24.65" shape-rendering="crispEdges"/><rect fill="#1e1e1e" x="1049.2" y="513.9" width="12.2" height="24.65" shape-rendering="crispEdges"/><rect fill="#161616" x="1061.4" y="513.9" width="207.4" height="24.65" shape-rendering="crispEdges"/><rect fill="#161616" x="0" y="538.3" width="1268.8" height="24.65" shape-rendering="crispEdges"/><rect fill="#161616" x="0" y="562.7" width="1268.8" height="24.65" shape-rendering="crispEdges"/><rect fill="#161616" x="0" y="587.1" width="1268.8" height="24.65" shape-rendering="crispEdges"/><rect fill="#161616" x="0" y="611.5" width="1268.8" height="24.65" shape-rendering="crispEdges"/><rect fill="#161616" x="0" y="635.9" width="1268.8" height="24.65" shape-rendering="crispEdges"/><rect fill="#161616" x="0" y="660.3" width="1268.8" height="24.65" shape-rendering="crispEdges"/><rect fill="#161616" x="0" y="684.7" width="1268.8" height="24.65" shape-rendering="crispEdges"/><rect fill="#191d21" x="0" y="709.1" width="36.6" height="24.65" shape-rendering="crispEdges"/><rect fill="#191d21" x="36.6" y="709.1" width="97.6" height="24.65" shape-rendering="crispEdges"/><rect fill="#191d21" x="134.2" y="709.1" width="36.6" height="24.65" shape-rendering="crispEdges"/><rect fill="#191d21" x="170.8" y="709.1" width="85.4" height="24.65" shape-rendering="crispEdges"/><rect fill="#191d21" x="256.2" y="709.1" width="36.6" height="24.65" shape-rendering="crispEdges"/><rect fill="#191d21" x="292.8" y="709.1" width="73.2" height="24.65" shape-rendering="crispEdges"/><rect fill="#191d21" x="366" y="709.1" width="36.6" height="24.65" shape-rendering="crispEdges"/><rect fill="#191d21" x="402.6" y="709.1" width="61" height="24.65" shape-rendering="crispEdges"/><rect fill="#191d21" x="463.6" y="709.1" width="36.6" height="24.65" shape-rendering="crispEdges"/><rect fill="#191d21" x="500.2" y="709.1" width="73.2" height="24.65" shape-rendering="crispEdges"/><rect fill="#191d21" x="573.4" y="709.1" width="36.6" height="24.65" shape-rendering="crispEdges"/><rect fill="#191d21" x="610" y="709.1" width="85.4" height="24.65" shape-rendering="crispEdges"/><rect fill="#191d21" x="695.4" y="709.1" width="61" height="24.65" shape-rendering="crispEdges"/><rect fill="#191d21" x="756.4" y="709.1" width="85.4" height="24.65" shape-rendering="crispEdges"/><rect fill="#191d21" x="841.8" y="709.1" width="36.6" height="24.65" shape-rendering="crispEdges"/><rect fill="#191d21" x="878.4" y="709.1" width="61" height="24.65" shape-rendering="crispEdges"/><rect fill="#191d21" x="939.4" y="709.1" width="183" height="24.65" shape-rendering="crispEdges"/><rect fill="#191d21" x="1122.4" y="709.1" width="12.2" height="24.65" shape-rendering="crispEdges"/><rect fill="#191d21" x="1134.6" y="709.1" width="24.4" height="24.65" shape-rendering="crispEdges"/><rect fill="#191d21" x="1159" y="709.1" width="97.6" height="24.65" shape-rendering="crispEdges"/><rect fill="#191d21" x="1256.6" y="709.1" width="12.2" height="24.65" shape-rendering="crispEdges"/>
    <g class="terminal-577764163-matrix">
    <text class="terminal-577764163-r2" x="12.2" y="20" textLength="12.2" clip-path="url(#terminal-577764163-line-0)">⭘</text><text class="terminal-577764163-r2" x="402.6" y="20" textLength="97.6" clip-path="url(#terminal-577764163-line-0)">cs-proxy</text><text class="terminal-577764163-r3" x="500.2" y="20" textLength="36.6" clip-path="url(#terminal-577764163-line-0)">&#160;—&#160;</text><text class="terminal-577764163-r3" x="536.8" y="20" textLength="292.8" clip-path="url(#terminal-577764163-line-0)">Codespaces&#160;proxy&#160;monitor</text><text class="terminal-577764163-r4" x="1159" y="20" textLength="97.6" clip-path="url(#terminal-577764163-line-0)">23:27:07</text><text class="terminal-577764163-r5" x="1268.8" y="20" textLength="12.2" clip-path="url(#terminal-577764163-line-0)">
</text><text class="terminal-577764163-r6" x="12.2" y="44.4" textLength="85.4" clip-path="url(#terminal-577764163-line-1)">Tunnels</text><text class="terminal-577764163-r7" x="122" y="44.4" textLength="122" clip-path="url(#terminal-577764163-line-1)">Codespaces</text><text class="terminal-577764163-r6" x="268.4" y="44.4" textLength="73.2" clip-path="url(#terminal-577764163-line-1)">Chains</text><text class="terminal-577764163-r6" x="366" y="44.4" textLength="134.2" clip-path="url(#terminal-577764163-line-1)">Diagnostics</text><text class="terminal-577764163-r6" x="524.6" y="44.4" textLength="48.8" clip-path="url(#terminal-577764163-line-1)">Logs</text><text class="terminal-577764163-r5" x="1268.8" y="44.4" textLength="12.2" clip-path="url(#terminal-577764163-line-1)">
</text><text class="terminal-577764163-r8" x="0" y="68.8" textLength="109.8" clip-path="url(#terminal-577764163-line-2)">━━━━━━━━━</text><text class="terminal-577764163-r8" x="109.8" y="68.8" textLength="12.2" clip-path="url(#terminal-577764163-line-2)">╸</text><text class="terminal-577764163-r9" x="122" y="68.8" textLength="122" clip-path="url(#terminal-577764163-line-2)">━━━━━━━━━━</text><text class="terminal-577764163-r8" x="244" y="68.8" textLength="12.2" clip-path="url(#terminal-577764163-line-2)">╺</text><text class="terminal-577764163-r8" x="256.2" y="68.8" textLength="1012.6" clip-path="url(#terminal-577764163-line-2)">━━━━━━━━━━━━━━━━━━━━━━━━━━━━━━━━━━━━━━━━━━━━━━━━━━━━━━━━━━━━━━━━━━━━━━━━━━━━━━━━━━━</text><text class="terminal-577764163-r5" x="1268.8" y="68.8" textLength="12.2" clip-path="url(#terminal-577764163-line-2)">
</text><text class="terminal-577764163-r10" x="0" y="93.2" textLength="109.8" clip-path="url(#terminal-577764163-line-3)">&#160;Name&#160;&#160;&#160;&#160;</text><text class="terminal-577764163-r10" x="109.8" y="93.2" textLength="134.2" clip-path="url(#terminal-577764163-line-3)">&#160;State&#160;&#160;&#160;&#160;&#160;</text><text class="terminal-577764163-r10" x="244" y="93.2" textLength="146.4" clip-path="url(#terminal-577764163-line-3)">&#160;Repository&#160;</text><text class="terminal-577764163-r10" x="390.4" y="93.2" textLength="146.4" clip-path="url(#terminal-577764163-line-3)">&#160;Created&#160;&#160;&#160;&#160;</text><text class="terminal-577764163-r5" x="1268.8" y="93.2" textLength="12.2" clip-path="url(#terminal-577764163-line-3)">
</text><text class="terminal-577764163-r5" x="1268.8" y="117.6" textLength="12.2" clip-path="url(#terminal-577764163-line-4)">
</text><text class="terminal-577764163-r5" x="1268.8" y="142" textLength="12.2" clip-path="url(#terminal-577764163-line-5)">
</text><text class="terminal-577764163-r5" x="1268.8" y="166.4" textLength="12.2" clip-path="url(#terminal-577764163-line-6)">
</text><text class="terminal-577764163-r5" x="1268.8" y="190.8" textLength="12.2" clip-path="url(#terminal-577764163-line-7)">
</text><text class="terminal-577764163-r11" x="207.4" y="215.2" textLength="12.2" clip-path="url(#terminal-577764163-line-8)">█</text><text class="terminal-577764163-r11" x="219.6" y="215.2" textLength="829.6" clip-path="url(#terminal-577764163-line-8)">▀▀▀▀▀▀▀▀▀▀▀▀▀▀▀▀▀▀▀▀▀▀▀▀▀▀▀▀▀▀▀▀▀▀▀▀▀▀▀▀▀▀▀▀▀▀▀▀▀▀▀▀▀▀▀▀▀▀▀▀▀▀▀▀▀▀▀▀</text><text class="terminal-577764163-r11" x="1049.2" y="215.2" textLength="12.2" clip-path="url(#terminal-577764163-line-8)">█</text><text class="terminal-577764163-r5" x="1268.8" y="215.2" textLength="12.2" clip-path="url(#terminal-577764163-line-8)">
</text><text class="terminal-577764163-r11" x="207.4" y="239.6" textLength="12.2" clip-path="url(#terminal-577764163-line-9)">█</text><text class="terminal-577764163-r11" x="1049.2" y="239.6" textLength="12.2" clip-path="url(#terminal-577764163-line-9)">█</text><text class="terminal-577764163-r5" x="1268.8" y="239.6" textLength="12.2" clip-path="url(#terminal-577764163-line-9)">
</text><text class="terminal-577764163-r11" x="207.4" y="264" textLength="12.2" clip-path="url(#terminal-577764163-line-10)">█</text><text class="terminal-577764163-r1" x="244" y="264" textLength="561.2" clip-path="url(#terminal-577764163-line-10)">Create&#160;codespace&#160;from&#160;repository&#160;(owner/repo):</text><text class="terminal-577764163-r11" x="1049.2" y="264" textLength="12.2" clip-path="url(#terminal-577764163-line-10)">█</text><text class="terminal-577764163-r5" x="1268.8" y="264" textLength="12.2" clip-path="url(#terminal-577764163-line-10)">
</text><text class="terminal-577764163-r11" x="207.4" y="288.4" textLength="12.2" clip-path="url(#terminal-577764163-line-11)">█</text><text class="terminal-577764163-r11" x="1049.2" y="288.4" textLength="12.2" clip-path="url(#terminal-577764163-line-11)">█</text><text class="terminal-577764163-r5" x="1268.8" y="288.4" textLength="12.2" clip-path="url(#terminal-577764163-line-11)">
</text><text class="terminal-577764163-r11" x="207.4" y="312.8" textLength="12.2" clip-path="url(#terminal-577764163-line-12)">█</text><text class="terminal-577764163-r11" x="1049.2" y="312.8" textLength="12.2" clip-path="url(#terminal-577764163-line-12)">█</text><text class="terminal-577764163-r5" x="1268.8" y="312.8" textLength="12.2" clip-path="url(#terminal-577764163-line-12)">
</text><text class="terminal-577764163-r11" x="207.4" y="337.2" textLength="12.2" clip-path="url(#terminal-577764163-line-13)">█</text><text class="terminal-577764163-r12" x="244" y="337.2" textLength="12.2" clip-path="url(#terminal-577764163-line-13)">▊</text><text class="terminal-577764163-r13" x="256.2" y="337.2" textLength="756.4" clip-path="url(#terminal-577764163-line-13)">▔▔▔▔▔▔▔▔▔▔▔▔▔▔▔▔▔▔▔▔▔▔▔▔▔▔▔▔▔▔▔▔▔▔▔▔▔▔▔▔▔▔▔▔▔▔▔▔▔▔▔▔▔▔▔▔▔▔▔▔▔▔</text><text class="terminal-577764163-r13" x="1012.6" y="337.2" textLength="12.2" clip-path="url(#terminal-577764163-line-13)">▎</text><text class="terminal-577764163-r11" x="1049.2" y="337.2" textLength="12.2" clip-path="url(#terminal-577764163-line-13)">█</text><text class="terminal-577764163-r5" x="1268.8" y="337.2" textLength="12.2" clip-path="url(#terminal-577764163-line-13)">
</text><text class="terminal-577764163-r11" x="207.4" y="361.6" textLength="12.2" clip-path="url(#terminal-577764163-line-14)">█</text><text class="terminal-577764163-r12" x="244" y="361.6" textLength="12.2" clip-path="url(#terminal-577764163-line-14)">▊</text><text class="terminal-577764163-r1" x="280.6" y="361.6" textLength="280.6" clip-path="url(#terminal-577764163-line-14)">github/codespaces-blank</text><text class="terminal-577764163-r13" x="1012.6" y="361.6" textLength="12.2" clip-path="url(#terminal-577764163-line-14)">▎</text><text class="terminal-577764163-r11" x="1049.2" y="361.6" textLength="12.2" clip-path="url(#terminal-577764163-line-14)">█</text><text class="terminal-577764163-r5" x="1268.8" y="361.6" textLength="12.2" clip-path="url(#terminal-577764163-line-14)">
</text><text class="terminal-577764163-r11" x="207.4" y="386" textLength="12.2" clip-path="url(#terminal-577764163-line-15)">█</text><text class="terminal-577764163-r12" x="244" y="386" textLength="12.2" clip-path="url(#terminal-577764163-line-15)">▊</text><text class="terminal-577764163-r13" x="256.2" y="386" textLength="756.4" clip-path="url(#terminal-577764163-line-15)">▁▁▁▁▁▁▁▁▁▁▁▁▁▁▁▁▁▁▁▁▁▁▁▁▁▁▁▁▁▁▁▁▁▁▁▁▁▁▁▁▁▁▁▁▁▁▁▁▁▁▁▁▁▁▁▁▁▁▁▁▁▁</text><text class="terminal-577764163-r13" x="1012.6" y="386" textLength="12.2" clip-path="url(#terminal-577764163-line-15)">▎</text><text class="terminal-577764163-r11" x="1049.2" y="386" textLength="12.2" clip-path="url(#terminal-577764163-line-15)">█</text><text class="terminal-577764163-r5" x="1268.8" y="386" textLength="12.2" clip-path="url(#terminal-577764163-line-15)">
</text><text class="terminal-577764163-r11" x="207.4" y="410.4" textLength="12.2" clip-path="url(#terminal-577764163-line-16)">█</text><text class="terminal-577764163-r11" x="1049.2" y="410.4" textLength="12.2" clip-path="url(#terminal-577764163-line-16)">█</text><text class="terminal-577764163-r5" x="1268.8" y="410.4" textLength="12.2" clip-path="url(#terminal-577764163-line-16)">
</text><text class="terminal-577764163-r11" x="207.4" y="434.8" textLength="12.2" clip-path="url(#terminal-577764163-line-17)">█</text><text class="terminal-577764163-r14" x="244" y="434.8" textLength="378.2" clip-path="url(#terminal-577764163-line-17)">▔▔▔▔▔▔▔▔▔▔▔▔▔▔▔▔▔▔▔▔▔▔▔▔▔▔▔▔▔▔▔</text><text class="terminal-577764163-r15" x="646.6" y="434.8" textLength="378.2" clip-path="url(#terminal-577764163-line-17)">▔▔▔▔▔▔▔▔▔▔▔▔▔▔▔▔▔▔▔▔▔▔▔▔▔▔▔▔▔▔▔</text><text class="terminal-577764163-r11" x="1049.2" y="434.8" textLength="12.2" clip-path="url(#terminal-577764163-line-17)">█</text><text class="terminal-577764163-r5" x="1268.8" y="434.8" textLength="12.2" clip-path="url(#terminal-577764163-line-17)">
</text><text class="terminal-577764163-r11" x="207.4" y="459.2" textLength="12.2" clip-path="url(#terminal-577764163-line-18)">█</text><text class="terminal-577764163-r16" x="402.6" y="459.2" textLength="48.8" clip-path="url(#terminal-577764163-line-18)">&#160;OK&#160;</text><text class="terminal-577764163-r17" x="780.8" y="459.2" textLength="97.6" clip-path="url(#terminal-577764163-line-18)">&#160;Cancel&#160;</text><text class="terminal-577764163-r11" x="1049.2" y="459.2" textLength="12.2" clip-path="url(#terminal-577764163-line-18)">█</text><text class="terminal-577764163-r5" x="1268.8" y="459.2" textLength="12.2" clip-path="url(#terminal-577764163-line-18)">
</text><text class="terminal-577764163-r11" x="207.4" y="483.6" textLength="12.2" clip-path="url(#terminal-577764163-line-19)">█</text><text class="terminal-577764163-r18" x="244" y="483.6" textLength="378.2" clip-path="url(#terminal-577764163-line-19)">▁▁▁▁▁▁▁▁▁▁▁▁▁▁▁▁▁▁▁▁▁▁▁▁▁▁▁▁▁▁▁</text><text class="terminal-577764163-r19" x="646.6" y="483.6" textLength="378.2" clip-path="url(#terminal-577764163-line-19)">▁▁▁▁▁▁▁▁▁▁▁▁▁▁▁▁▁▁▁▁▁▁▁▁▁▁▁▁▁▁▁</text><text class="terminal-577764163-r11" x="1049.2" y="483.6" textLength="12.2" clip-path="url(#terminal-577764163-line-19)">█</text><text class="terminal-577764163-r5" x="1268.8" y="483.6" textLength="12.2" clip-path="url(#terminal-577764163-line-19)">
</text><text class="terminal-577764163-r11" x="207.4" y="508" textLength="12.2" clip-path="url(#terminal-577764163-line-20)">█</text><text class="terminal-577764163-r11" x="1049.2" y="508" textLength="12.2" clip-path="url(#terminal-577764163-line-20)">█</text><text class="terminal-577764163-r5" x="1268.8" y="508" textLength="12.2" clip-path="url(#terminal-577764163-line-20)">
</text><text class="terminal-577764163-r11" x="207.4" y="532.4" textLength="12.2" clip-path="url(#terminal-577764163-line-21)">█</text><text class="terminal-577764163-r11" x="219.6" y="532.4" textLength="829.6" clip-path="url(#terminal-577764163-line-21)">▄▄▄▄▄▄▄▄▄▄▄▄▄▄▄▄▄▄▄▄▄▄▄▄▄▄▄▄▄▄▄▄▄▄▄▄▄▄▄▄▄▄▄▄▄▄▄▄▄▄▄▄▄▄▄▄▄▄▄▄▄▄▄▄▄▄▄▄</text><text class="terminal-577764163-r11" x="1049.2" y="532.4" textLength="12.2" clip-path="url(#terminal-577764163-line-21)">█</text><text class="terminal-577764163-r5" x="1268.8" y="532.4" textLength="12.2" clip-path="url(#terminal-577764163-line-21)">
</text><text class="terminal-577764163-r5" x="1268.8" y="556.8" textLength="12.2" clip-path="url(#terminal-577764163-line-22)">
</text><text class="terminal-577764163-r5" x="1268.8" y="581.2" textLength="12.2" clip-path="url(#terminal-577764163-line-23)">
</text><text class="terminal-577764163-r5" x="1268.8" y="605.6" textLength="12.2" clip-path="url(#terminal-577764163-line-24)">
</text><text class="terminal-577764163-r5" x="1268.8" y="630" textLength="12.2" clip-path="url(#terminal-577764163-line-25)">
</text><text class="terminal-577764163-r5" x="1268.8" y="654.4" textLength="12.2" clip-path="url(#terminal-577764163-line-26)">
</text><text class="terminal-577764163-r5" x="1268.8" y="678.8" textLength="12.2" clip-path="url(#terminal-577764163-line-27)">
</text><text class="terminal-577764163-r5" x="1268.8" y="703.2" textLength="12.2" clip-path="url(#terminal-577764163-line-28)">
</text><text class="terminal-577764163-r20" x="0" y="727.6" textLength="36.6" clip-path="url(#terminal-577764163-line-29)">&#160;r&#160;</text><text class="terminal-577764163-r2" x="36.6" y="727.6" textLength="97.6" clip-path="url(#terminal-577764163-line-29)">Refresh&#160;</text><text class="terminal-577764163-r20" x="134.2" y="727.6" textLength="36.6" clip-path="url(#terminal-577764163-line-29)">&#160;c&#160;</text><text class="terminal-577764163-r2" x="170.8" y="727.6" textLength="85.4" clip-path="url(#terminal-577764163-line-29)">Create&#160;</text><text class="terminal-577764163-r20" x="256.2" y="727.6" textLength="36.6" clip-path="url(#terminal-577764163-line-29)">&#160;s&#160;</text><text class="terminal-577764163-r2" x="292.8" y="727.6" textLength="73.2" clip-path="url(#terminal-577764163-line-29)">Start&#160;</text><text class="terminal-577764163-r20" x="366" y="727.6" textLength="36.6" clip-path="url(#terminal-577764163-line-29)">&#160;x&#160;</text><text class="terminal-577764163-r2" x="402.6" y="727.6" textLength="61" clip-path="url(#terminal-577764163-line-29)">Stop&#160;</text><text class="terminal-577764163-r20" x="463.6" y="727.6" textLength="36.6" clip-path="url(#terminal-577764163-line-29)">&#160;d&#160;</text><text class="terminal-577764163-r2" x="500.2" y="727.6" textLength="73.2" clip-path="url(#terminal-577764163-line-29)">Drain&#160;</text><text class="terminal-577764163-r20" x="573.4" y="727.6" textLength="36.6" clip-path="url(#terminal-577764163-line-29)">&#160;o&#160;</text><text class="terminal-577764163-r2" x="610" y="727.6" textLength="85.4" clip-path="url(#terminal-577764163-line-29)">Rotate&#160;</text><text class="terminal-577764163-r20" x="695.4" y="727.6" textLength="61" clip-path="url(#terminal-577764163-line-29)">&#160;del&#160;</text><text class="terminal-577764163-r2" x="756.4" y="727.6" textLength="85.4" clip-path="url(#terminal-577764163-line-29)">Delete&#160;</text><text class="terminal-577764163-r20" x="841.8" y="727.6" textLength="36.6" clip-path="url(#terminal-577764163-line-29)">&#160;q&#160;</text><text class="terminal-577764163-r2" x="878.4" y="727.6" textLength="61" clip-path="url(#terminal-577764163-line-29)">Quit&#160;</text><text class="terminal-577764163-r21" x="1122.4" y="727.6" textLength="12.2" clip-path="url(#terminal-577764163-line-29)">▏</text><text class="terminal-577764163-r20" x="1134.6" y="727.6" textLength="24.4" clip-path="url(#terminal-577764163-line-29)">^p</text><text class="terminal-577764163-r2" x="1159" y="727.6" textLength="97.6" clip-path="url(#terminal-577764163-line-29)">&#160;palette</text>
    </g>
    </g>
</svg>
