<svg class="rich-terminal" viewBox="0 0 1287 782.0" xmlns="http://www.w3.org/2000/svg">
    <!-- Generated with Rich https://www.textualize.io -->
    <style>

    @font-face {
        font-family: "Fira Code";
        src: local("FiraCode-Regular"),
                url("https://cdnjs.cloudflare.com/ajax/libs/firacode/6.2.0/woff2/FiraCode-Regular.woff2") format("woff2"),
                url("https://cdnjs.cloudflare.com/ajax/libs/firacode/6.2.0/woff/FiraCode-Regular.woff") format("woff");
        font-style: normal;
        font-weight: 400;
    }
    @font-face {
        font-family: "Fira Code";
        src: local("FiraCode-Bold"),
                url("https://cdnjs.cloudflare.com/ajax/libs/firacode/6.2.0/woff2/FiraCode-Bold.woff2") format("woff2"),
                url("https://cdnjs.cloudflare.com/ajax/libs/firacode/6.2.0/woff/FiraCode-Bold.woff") format("woff");
        font-style: bold;
        font-weight: 700;
    }

    .terminal-2557652603-matrix {
        font-family: Fira Code, monospace;
        font-size: 20px;
        line-height: 24.4px;
        font-variant-east-asian: full-width;
    }

    .terminal-2557652603-title {
        font-size: 18px;
        font-weight: bold;
        font-family: arial;
    }

    .terminal-2557652603-r1 { fill: #c5c8c6 }
.terminal-2557652603-r2 { fill: #e0e0e0 }
.terminal-2557652603-r3 { fill: #a0a3a6 }
.terminal-2557652603-r4 { fill: #c5c6c7 }
.terminal-2557652603-r5 { fill: #797979 }
.terminal-2557652603-r6 { fill: #ddedf9;font-weight: bold }
.terminal-2557652603-r7 { fill: #4f4f4f }
.terminal-2557652603-r8 { fill: #0178d4 }
.terminal-2557652603-r9 { fill: #e0e0e0;font-weight: bold }
.terminal-2557652603-r10 { fill: #ffa62b;font-weight: bold }
.terminal-2557652603-r11 { fill: #495259 }
    </style>

    <defs>
    <clipPath id="terminal-2557652603-clip-terminal">
      <rect x="0" y="0" width="1267.8" height="731.0" />
    </clipPath>
    <clipPath id="terminal-2557652603-line-0">
    <rect x="0" y="1.5" width="1268.8" height="24.65"/>
            </clipPath>
<clipPath id="terminal-2557652603-line-1">
    <rect x="0" y="25.9" width="1268.8" height="24.65"/>
            </clipPath>
<clipPath id="terminal-2557652603-line-2">
    <rect x="0" y="50.3" width="1268.8" height="24.65"/>
            </clipPath>
<clipPath id="terminal-2557652603-line-3">
    <rect x="0" y="74.7" width="1268.8" height="24.65"/>
            </clipPath>
<clipPath id="terminal-2557652603-line-4">
    <rect x="0" y="99.1" width="1268.8" height="24.65"/>
            </clipPath>
<clipPath id="terminal-2557652603-line-5">
    <rect x="0" y="123.5" width="1268.8" height="24.65"/>
            </clipPath>
<clipPath id="terminal-2557652603-line-6">
    <rect x="0" y="147.9" width="1268.8" height="24.65"/>
            </clipPath>
<clipPath id="terminal-2557652603-line-7">
    <rect x="0" y="172.3" width="1268.8" height="24.65"/>
            </clipPath>
<clipPath id="terminal-2557652603-line-8">
    <rect x="0" y="196.7" width="1268.8" height="24.65"/>
            </clipPath>
<clipPath id="terminal-2557652603-line-9">
    <rect x="0" y="221.1" width="1268.8" height="24.65"/>
            </clipPath>
<clipPath id="terminal-2557652603-line-10">
    <rect x="0" y="245.5" width="1268.8" height="24.65"/>
            </clipPath>
<clipPath id="terminal-2557652603-line-11">
    <rect x="0" y="269.9" width="1268.8" height="24.65"/>
            </clipPath>
<clipPath id="terminal-2557652603-line-12">
    <rect x="0" y="294.3" width="1268.8" height="24.65"/>
            </clipPath>
<clipPath id="terminal-2557652603-line-13">
    <rect x="0" y="318.7" width="1268.8" height="24.65"/>
            </clipPath>
<clipPath id="terminal-2557652603-line-14">
    <rect x="0" y="343.1" width="1268.8" height="24.65"/>
            </clipPath>
<clipPath id="terminal-2557652603-line-15">
    <rect x="0" y="367.5" width="1268.8" height="24.65"/>
            </clipPath>
<clipPath id="terminal-2557652603-line-16">
    <rect x="0" y="391.9" width="1268.8" height="24.65"/>
            </clipPath>
<clipPath id="terminal-2557652603-line-17">
    <rect x="0" y="416.3" width="1268.8" height="24.65"/>
            </clipPath>
<clipPath id="terminal-2557652603-line-18">
    <rect x="0" y="440.7" width="1268.8" height="24.65"/>
            </clipPath>
<clipPath id="terminal-2557652603-line-19">
    <rect x="0" y="465.1" width="1268.8" height="24.65"/>
            </clipPath>
<clipPath id="terminal-2557652603-line-20">
    <rect x="0" y="489.5" width="1268.8" height="24.65"/>
            </clipPath>
<clipPath id="terminal-2557652603-line-21">
    <rect x="0" y="513.9" width="1268.8" height="24.65"/>
            </clipPath>
<clipPath id="terminal-2557652603-line-22">
    <rect x="0" y="538.3" width="1268.8" height="24.65"/>
            </clipPath>
<clipPath id="terminal-2557652603-line-23">
    <rect x="0" y="562.7" width="1268.8" height="24.65"/>
            </clipPath>
<clipPath id="terminal-2557652603-line-24">
    <rect x="0" y="587.1" width="1268.8" height="24.65"/>
            </clipPath>
<clipPath id="terminal-2557652603-line-25">
    <rect x="0" y="611.5" width="1268.8" height="24.65"/>
            </clipPath>
<clipPath id="terminal-2557652603-line-26">
    <rect x="0" y="635.9" width="1268.8" height="24.65"/>
            </clipPath>
<clipPath id="terminal-2557652603-line-27">
    <rect x="0" y="660.3" width="1268.8" height="24.65"/>
            </clipPath>
<clipPath id="terminal-2557652603-line-28">
    <rect x="0" y="684.7" width="1268.8" height="24.65"/>
            </clipPath>
    </defs>

    <rect fill="#292929" stroke="rgba(255,255,255,0.35)" stroke-width="1" x="1" y="1" width="1285" height="780" rx="8"/><text class="terminal-2557652603-title" fill="#c5c8c6" text-anchor="middle" x="642" y="27">cs-tui&#160;—&#160;Codespaces</text>
            <g transform="translate(26,22)">
            <circle cx="0" cy="0" r="7" fill="#ff5f57"/>
            <circle cx="22" cy="0" r="7" fill="#febc2e"/>
            <circle cx="44" cy="0" r="7" fill="#28c840"/>
            </g>
        
    <g transform="translate(9, 41)" clip-path="url(#terminal-2557652603-clip-terminal)">
    <rect fill="#242f38" x="0" y="1.5" width="12.2" height="24.65" shape-rendering="crispEdges"/><rect fill="#242f38" x="12.2" y="1.5" width="12.2" height="24.65" shape-rendering="crispEdges"/><rect fill="#242f38" x="24.4" y="1.5" width="61" height="24.65" shape-rendering="crispEdges"/><rect fill="#242f38" x="85.4" y="1.5" width="12.2" height="24.65" shape-rendering="crispEdges"/><rect fill="#242f38" x="97.6" y="1.5" width="305" height="24.65" shape-rendering="crispEdges"/><rect fill="#242f38" x="402.6" y="1.5" width="97.6" height="24.65" shape-rendering="crispEdges"/><rect fill="#242f38" x="500.2" y="1.5" width="36.6" height="24.65" shape-rendering="crispEdges"/><rect fill="#242f38" x="536.8" y="1.5" width="292.8" height="24.65" shape-rendering="crispEdges"/><rect fill="#242f38" x="829.6" y="1.5" width="317.2" height="24.65" shape-rendering="crispEdges"/><rect fill="#2c363f" x="1146.8" y="1.5" width="12.2" height="24.65" shape-rendering="crispEdges"/><rect fill="#2c363f" x="1159" y="1.5" width="97.6" height="24.65" shape-rendering="crispEdges"/><rect fill="#2c363f" x="1256.6" y="1.5" width="12.2" height="24.65" shape-rendering="crispEdges"/><rect fill="#121212" x="0" y="25.9" width="12.2" height="24.65" shape-rendering="crispEdges"/><rect fill="#121212" x="12.2" y="25.9" width="85.4" height="24.65" shape-rendering="crispEdges"/><rect fill="#121212" x="97.6" y="25.9" width="12.2" height="24.65" shape-rendering="crispEdges"/><rect fill="#0178d4" x="109.8" y="25.9" width="12.2" height="24.65" shape-rendering="crispEdges"/><rect fill="#0178d4" x="122" y="25.9" width="122" height="24.65" shape-rendering="crispEdges"/><rect fill="#0178d4" x="244" y="25.9" width="12.2" height="24.65" shape-rendering="crispEdges"/><rect fill="#121212" x="256.2" y="25.9" width="12.2" height="24.65" shape-rendering="crispEdges"/><rect fill="#121212" x="268.4" y="25.9" width="73.2" height="24.65" shape-rendering="crispEdges"/><rect fill="#121212" x="341.6" y="25.9" width="12.2" height="24.65" shape-rendering="crispEdges"/><rect fill="#121212" x="353.8" y="25.9" width="12.2" height="24.65" shape-rendering="crispEdges"/><rect fill="#121212" x="366" y="25.9" width="134.2" height="24.65" shape-rendering="crispEdges"/><rect fill="#121212" x="500.2" y="25.9" width="12.2" height="24.65" shape-rendering="crispEdges"/><rect fill="#121212" x="512.4" y="25.9" width="12.2" height="24.65" shape-rendering="crispEdges"/><rect fill="#121212" x="524.6" y="25.9" width="48.8" height="24.65" shape-rendering="crispEdges"/><rect fill="#121212" x="573.4" y="25.9" width="12.2" height="24.65" shape-rendering="crispEdges"/><rect fill="#121212" x="585.6" y="25.9" width="683.2" height="24.65" shape-rendering="crispEdges"/><rect fill="#121212" x="0" y="50.3" width="12.2" height="24.65" shape-rendering="crispEdges"/><rect fill="#121212" x="12.2" y="50.3" width="85.4" height="24.65" shape-rendering="crispEdges"/><rect fill="#121212" x="97.6" y="50.3" width="12.2" height="24.65" shape-rendering="crispEdges"/><rect fill="#121212" x="109.8" y="50.3" width="1159" height="24.65" shape-rendering="crispEdges"/><rect fill="#242f38" x="0" y="74.7" width="109.8" height="24.65" shape-rendering="crispEdges"/><rect fill="#242f38" x="109.8" y="74.7" width="134.2" height="24.65" shape-rendering="crispEdges"/><rect fill="#242f38" x="244" y="74.7" width="146.4" height="24.65" shape-rendering="crispEdges"/><rect fill="#242f38" x="390.4" y="74.7" width="146.4" height="24.65" shape-rendering="crispEdges"/><rect fill="#242f38" x="536.8" y="74.7" width="732" height="24.65" shape-rendering="crispEdges"/><rect fill="#153854" x="0" y="99.1" width="109.8" height="24.65" shape-rendering="crispEdges"/><rect fill="#153854" x="109.8" y="99.1" width="134.2" height="24.65" shape-rendering="crispEdges"/><rect fill="#153854" x="244" y="99.1" width="146.4" height="24.65" shape-rendering="crispEdges"/><rect fill="#153854" x="390.4" y="99.1" width="146.4" height="24.65" shape-rendering="crispEdges"/><rect fill="#153854" x="536.8" y="99.1" width="732" height="24.65" shape-rendering="crispEdges"/><rect fill="#1e1e1e" x="0" y="123.5" width="109.8" height="24.65" shape-rendering="crispEdges"/><rect fill="#1e1e1e" x="109.8" y="123.5" width="134.2" height="24.65" shape-rendering="crispEdges"/><rect fill="#1e1e1e" x="244" y="123.5" width="146.4" height="24.65" shape-rendering="crispEdges"/><rect fill="#1e1e1e" x="390.4" y="123.5" width="146.4" height="24.65" shape-rendering="crispEdges"/><rect fill="#1e1e1e" x="536.8" y="123.5" width="732" height="24.65" shape-rendering="crispEdges"/><rect fill="#1e1e1e" x="0" y="147.9" width="1268.8" height="24.65" shape-rendering="crispEdges"/><rect fill="#1e1e1e" x="0" y="172.3" width="1268.8" height="24.65" shape-rendering="crispEdges"/><rect fill="#1e1e1e" x="0" y="196.7" width="1268.8" height="24.65" shape-rendering="crispEdges"/><rect fill="#1e1e1e" x="0" y="221.1" width="1268.8" height="24.65" shape-rendering="crispEdges"/><rect fill="#1e1e1e" x="0" y="245.5" width="1268.8" height="24.65" shape-rendering="crispEdges"/><rect fill="#1e1e1e" x="0" y="269.9" width="1268.8" height="24.65" shape-rendering="crispEdges"/><rect fill="#1e1e1e" x="0" y="294.3" width="1268.8" height="24.65" shape-rendering="crispEdges"/><rect fill="#1e1e1e" x="0" y="318.7" width="1268.8" height="24.65" shape-rendering="crispEdges"/><rect fill="#1e1e1e" x="0" y="343.1" width="1268.8" height="24.65" shape-rendering="crispEdges"/><rect fill="#1e1e1e" x="0" y="367.5" width="1268.8" height="24.65" shape-rendering="crispEdges"/><rect fill="#1e1e1e" x="0" y="391.9" width="1268.8" height="24.65" shape-rendering="crispEdges"/><rect fill="#1e1e1e" x="0" y="416.3" width="1268.8" height="24.65" shape-rendering="crispEdges"/><rect fill="#1e1e1e" x="0" y="440.7" width="1268.8" height="24.65" shape-rendering="crispEdges"/><rect fill="#1e1e1e" x="0" y="465.1" width="1268.8" height="24.65" shape-rendering="crispEdges"/><rect fill="#1e1e1e" x="0" y="489.5" width="1268.8" height="24.65" shape-rendering="crispEdges"/><rect fill="#1e1e1e" x="0" y="513.9" width="1268.8" height="24.65" shape-rendering="crispEdges"/><rect fill="#1e1e1e" x="0" y="538.3" width="1268.8" height="24.65" shape-rendering="crispEdges"/><rect fill="#1e1e1e" x="0" y="562.7" width="1268.8" height="24.65" shape-rendering="crispEdges"/><rect fill="#1e1e1e" x="0" y="587.1" width="1268.8" height="24.65" shape-rendering="crispEdges"/><rect fill="#1e1e1e" x="0" y="611.5" width="1268.8" height="24.65" shape-rendering="crispEdges"/><rect fill="#1e1e1e" x="0" y="635.9" width="1268.8" height="24.65" shape-rendering="crispEdges"/><rect fill="#1e1e1e" x="0" y="660.3" width="1268.8" height="24.65" shape-rendering="crispEdges"/><rect fill="#1e1e1e" x="0" y="684.7" width="1268.8" height="24.65" shape-rendering="crispEdges"/><rect fill="#242f38" x="0" y="709.1" width="36.6" height="24.65" shape-rendering="crispEdges"/><rect fill="#242f38" x="36.6" y="709.1" width="97.6" height="24.65" shape-rendering="crispEdges"/><rect fill="#242f38" x="134.2" y="709.1" width="36.6" height="24.65" shape-rendering="crispEdges"/><rect fill="#242f38" x="170.8" y="709.1" width="85.4" height="24.65" shape-rendering="crispEdges"/><rect fill="#242f38" x="256.2" y="709.1" width="36.6" height="24.65" shape-rendering="crispEdges"/><rect fill="#242f38" x="292.8" y="709.1" width="73.2" height="24.65" shape-rendering="crispEdges"/><rect fill="#242f38" x="366" y="709.1" width="36.6" height="24.65" shape-rendering="crispEdges"/><rect fill="#242f38" x="402.6" y="709.1" width="61" height="24.65" shape-rendering="crispEdges"/><rect fill="#242f38" x="463.6" y="709.1" width="36.6" height="24.65" shape-rendering="crispEdges"/><rect fill="#242f38" x="500.2" y="709.1" width="73.2" height="24.65" shape-rendering="crispEdges"/><rect fill="#242f38" x="573.4" y="709.1" width="36.6" height="24.65" shape-rendering="crispEdges"/><rect fill="#242f38" x="610" y="709.1" width="85.4" height="24.65" shape-rendering="crispEdges"/><rect fill="#242f38" x="695.4" y="709.1" width="61" height="24.65" shape-rendering="crispEdges"/><rect fill="#242f38" x="756.4" y="709.1" width="85.4" height="24.65" shape-rendering="crispEdges"/><rect fill="#242f38" x="841.8" y="709.1" width="36.6" height="24.65" shape-rendering="crispEdges"/><rect fill="#242f38" x="878.4" y="709.1" width="61" height="24.65" shape-rendering="crispEdges"/><rect fill="#242f38" x="939.4" y="709.1" width="183" height="24.65" shape-rendering="crispEdges"/><rect fill="#242f38" x="1122.4" y="709.1" width="12.2" height="24.65" shape-rendering="crispEdges"/><rect fill="#242f38" x="1134.6" y="709.1" width="24.4" height="24.65" shape-rendering="crispEdges"/><rect fill="#242f38" x="1159" y="709.1" width="97.6" height="24.65" shape-rendering="crispEdges"/><rect fill="#242f38" x="1256.6" y="709.1" width="12.2" height="24.65" shape-rendering="crispEdges"/>
    <g class="terminal-2557652603-matrix">
    <text class="terminal-2557652603-r2" x="12.2" y="20" textLength="12.2" clip-path="url(#terminal-2557652603-line-0)">⭘</text><text class="terminal-2557652603-r2" x="402.6" y="20" textLength="97.6" clip-path="url(#terminal-2557652603-line-0)">cs-proxy</text><text class="terminal-2557652603-r3" x="500.2" y="20" textLength="36.6" clip-path="url(#terminal-2557652603-line-0)">&#160;—&#160;</text><text class="terminal-2557652603-r3" x="536.8" y="20" textLength="292.8" clip-path="url(#terminal-2557652603-line-0)">Codespaces&#160;proxy&#160;monitor</text><text class="terminal-2557652603-r4" x="1159" y="20" textLength="97.6" clip-path="url(#terminal-2557652603-line-0)">23:27:07</text><text class="terminal-2557652603-r1" x="1268.8" y="20" textLength="12.2" clip-path="url(#terminal-2557652603-line-0)">
</text><text class="terminal-2557652603-r5" x="12.2" y="44.4" textLength="85.4" clip-path="url(#terminal-2557652603-line-1)">Tunnels</text><text class="terminal-2557652603-r6" x="122" y="44.4" textLength="122" clip-path="url(#terminal-2557652603-line-1)">Codespaces</text><text class="terminal-2557652603-r5" x="268.4" y="44.4" textLength="73.2" clip-path="url(#terminal-2557652603-line-1)">Chains</text><text class="terminal-2557652603-r5" x="366" y="44.4" textLength="134.2" clip-path="url(#terminal-2557652603-line-1)">Diagnostics</text><text class="terminal-2557652603-r5" x="524.6" y="44.4" textLength="48.8" clip-path="url(#terminal-2557652603-line-1)">Logs</text><text class="terminal-2557652603-r1" x="1268.8" y="44.4" textLength="12.2" clip-path="url(#terminal-2557652603-line-1)">
</text><text class="terminal-2557652603-r7" x="0" y="68.8" textLength="12.2" clip-path="url(#terminal-2557652603-line-2)">━</text><text class="terminal-2557652603-r8" x="12.2" y="68.8" textLength="85.4" clip-path="url(#terminal-2557652603-line-2)">╺━━━━━━</text><text class="terminal-2557652603-r8" x="97.6" y="68.8" textLength="12.2" clip-path="url(#terminal-2557652603-line-2)">╸</text><text class="terminal-2557652603-r7" x="109.8" y="68.8" textLength="1159" clip-path="url(#terminal-2557652603-line-2)">━━━━━━━━━━━━━━━━━━━━━━━━━━━━━━━━━━━━━━━━━━━━━━━━━━━━━━━━━━━━━━━━━━━━━━━━━━━━━━━━━━━━━━━━━━━━━━━</text><text class="terminal-2557652603-r1" x="1268.8" y="68.8" textLength="12.2" clip-path="url(#terminal-2557652603-line-2)">
</text><text class="terminal-2557652603-r9" x="0" y="93.2" textLength="109.8" clip-path="url(#terminal-2557652603-line-3)">&#160;Name&#160;&#160;&#160;&#160;</text><text class="terminal-2557652603-r9" x="109.8" y="93.2" textLength="134.2" clip-path="url(#terminal-2557652603-line-3)">&#160;State&#160;&#160;&#160;&#160;&#160;</text><text class="terminal-2557652603-r9" x="244" y="93.2" textLength="146.4" clip-path="url(#terminal-2557652603-line-3)">&#160;Repository&#160;</text><text class="terminal-2557652603-r9" x="390.4" y="93.2" textLength="146.4" clip-path="url(#terminal-2557652603-line-3)">&#160;Created&#160;&#160;&#160;&#160;</text><text class="terminal-2557652603-r1" x="1268.8" y="93.2" textLength="12.2" clip-path="url(#terminal-2557652603-line-3)">
</text><text class="terminal-2557652603-r2" x="0" y="117.6" textLength="109.8" clip-path="url(#terminal-2557652603-line-4)">&#160;demo-eu&#160;</text><text class="terminal-2557652603-r2" x="109.8" y="117.6" textLength="134.2" clip-path="url(#terminal-2557652603-line-4)">&#160;Available&#160;</text><text class="terminal-2557652603-r2" x="244" y="117.6" textLength="146.4" clip-path="url(#terminal-2557652603-line-4)">&#160;acme/recon&#160;</text><text class="terminal-2557652603-r2" x="390.4" y="117.6" textLength="146.4" clip-path="url(#terminal-2557652603-line-4)">&#160;2026-06-10&#160;</text><text class="terminal-2557652603-r1" x="1268.8" y="117.6" textLength="12.2" clip-path="url(#terminal-2557652603-line-4)">
</text><text class="terminal-2557652603-r2" x="0" y="142" textLength="109.8" clip-path="url(#terminal-2557652603-line-5)">&#160;demo-us&#160;</text><text class="terminal-2557652603-r2" x="109.8" y="142" textLength="134.2" clip-path="url(#terminal-2557652603-line-5)">&#160;Shutdown&#160;&#160;</text><text class="terminal-2557652603-r2" x="244" y="142" textLength="146.4" clip-path="url(#terminal-2557652603-line-5)">&#160;acme/recon&#160;</text><text class="terminal-2557652603-r2" x="390.4" y="142" textLength="146.4" clip-path="url(#terminal-2557652603-line-5)">&#160;2026-06-09&#160;</text><text class="terminal-2557652603-r1" x="1268.8" y="142" textLength="12.2" clip-path="url(#terminal-2557652603-line-5)">
</text><text class="terminal-2557652603-r1" x="1268.8" y="166.4" textLength="12.2" clip-path="url(#terminal-2557652603-line-6)">
</text><text class="terminal-2557652603-r1" x="1268.8" y="190.8" textLength="12.2" clip-path="url(#terminal-2557652603-line-7)">
</text><text class="terminal-2557652603-r1" x="1268.8" y="215.2" textLength="12.2" clip-path="url(#terminal-2557652603-line-8)">
</text><text class="terminal-2557652603-r1" x="1268.8" y="239.6" textLength="12.2" clip-path="url(#terminal-2557652603-line-9)">
</text><text class="terminal-2557652603-r1" x="1268.8" y="264" textLength="12.2" clip-path="url(#terminal-2557652603-line-10)">
</text><text class="terminal-2557652603-r1" x="1268.8" y="288.4" textLength="12.2" clip-path="url(#terminal-2557652603-line-11)">
</text><text class="terminal-2557652603-r1" x="1268.8" y="312.8" textLength="12.2" clip-path="url(#terminal-2557652603-line-12)">
</text><text class="terminal-2557652603-r1" x="1268.8" y="337.2" textLength="12.2" clip-path="url(#terminal-2557652603-line-13)">
</text><text class="terminal-2557652603-r1" x="1268.8" y="361.6" textLength="12.2" clip-path="url(#terminal-2557652603-line-14)">
</text><text class="terminal-2557652603-r1" x="1268.8" y="386" textLength="12.2" clip-path="url(#terminal-2557652603-line-15)">
</text><text class="terminal-2557652603-r1" x="1268.8" y="410.4" textLength="12.2" clip-path="url(#terminal-2557652603-line-16)">
</text><text class="terminal-2557652603-r1" x="1268.8" y="434.8" textLength="12.2" clip-path="url(#terminal-2557652603-line-17)">
</text><text class="terminal-2557652603-r1" x="1268.8" y="459.2" textLength="12.2" clip-path="url(#terminal-2557652603-line-18)">
</text><text class="terminal-2557652603-r1" x="1268.8" y="483.6" textLength="12.2" clip-path="url(#terminal-2557652603-line-19)">
</text><text class="terminal-2557652603-r1" x="1268.8" y="508" textLength="12.2" clip-path="url(#terminal-2557652603-line-20)">
</text><text class="terminal-2557652603-r1" x="1268.8" y="532.4" textLength="12.2" clip-path="url(#terminal-2557652603-line-21)">
</text><text class="terminal-2557652603-r1" x="1268.8" y="556.8" textLength="12.2" clip-path="url(#terminal-2557652603-line-22)">
</text><text class="terminal-2557652603-r1" x="1268.8" y="581.2" textLength="12.2" clip-path="url(#terminal-2557652603-line-23)">
</text><text class="terminal-2557652603-r1" x="1268.8" y="605.6" textLength="12.2" clip-path="url(#terminal-2557652603-line-24)">
</text><text class="terminal-2557652603-r1" x="1268.8" y="630" textLength="12.2" clip-path="url(#terminal-2557652603-line-25)">
</text><text class="terminal-2557652603-r1" x="1268.8" y="654.4" textLength="12.2" clip-path="url(#terminal-2557652603-line-26)">
</text><text class="terminal-2557652603-r1" x="1268.8" y="678.8" textLength="12.2" clip-path="url(#terminal-2557652603-line-27)">
</text><text class="terminal-2557652603-r1" x="1268.8" y="703.2" textLength="12.2" clip-path="url(#terminal-2557652603-line-28)">
</text><text class="terminal-2557652603-r10" x="0" y="727.6" textLength="36.6" clip-path="url(#terminal-2557652603-line-29)">&#160;r&#160;</text><text class="terminal-2557652603-r2" x="36.6" y="727.6" textLength="97.6" clip-path="url(#terminal-2557652603-line-29)">Refresh&#160;</text><text class="terminal-2557652603-r10" x="134.2" y="727.6" textLength="36.6" clip-path="url(#terminal-2557652603-line-29)">&#160;c&#160;</text><text class="terminal-2557652603-r2" x="170.8" y="727.6" textLength="85.4" clip-path="url(#terminal-2557652603-line-29)">Create&#160;</text><text class="terminal-2557652603-r10" x="256.2" y="727.6" textLength="36.6" clip-path="url(#terminal-2557652603-line-29)">&#160;s&#160;</text><text class="terminal-2557652603-r2" x="292.8" y="727.6" textLength="73.2" clip-path="url(#terminal-2557652603-line-29)">Start&#160;</text><text class="terminal-2557652603-r10" x="366" y="727.6" textLength="36.6" clip-path="url(#terminal-2557652603-line-29)">&#160;x&#160;</text><text class="terminal-2557652603-r2" x="402.6" y="727.6" textLength="61" clip-path="url(#terminal-2557652603-line-29)">Stop&#160;</text><text class="terminal-2557652603-r10" x="463.6" y="727.6" textLength="36.6" clip-path="url(#terminal-2557652603-line-29)">&#160;d&#160;</text><text class="terminal-2557652603-r2" x="500.2" y="727.6" textLength="73.2" clip-path="url(#terminal-2557652603-line-29)">Drain&#160;</text><text class="terminal-2557652603-r10" x="573.4" y="727.6" textLength="36.6" clip-path="url(#terminal-2557652603-line-29)">&#160;o&#160;</text><text class="terminal-2557652603-r2" x="610" y="727.6" textLength="85.4" clip-path="url(#terminal-2557652603-line-29)">Rotate&#160;</text><text class="terminal-2557652603-r10" x="695.4" y="727.6" textLength="61" clip-path="url(#terminal-2557652603-line-29)">&#160;del&#160;</text><text class="terminal-2557652603-r2" x="756.4" y="727.6" textLength="85.4" clip-path="url(#terminal-2557652603-line-29)">Delete&#160;</text><text class="terminal-2557652603-r10" x="841.8" y="727.6" textLength="36.6" clip-path="url(#terminal-2557652603-line-29)">&#160;q&#160;</text><text class="terminal-2557652603-r2" x="878.4" y="727.6" textLength="61" clip-path="url(#terminal-2557652603-line-29)">Quit&#160;</text><text class="terminal-2557652603-r11" x="1122.4" y="727.6" textLength="12.2" clip-path="url(#terminal-2557652603-line-29)">▏</text><text class="terminal-2557652603-r10" x="1134.6" y="727.6" textLength="24.4" clip-path="url(#terminal-2557652603-line-29)">^p</text><text class="terminal-2557652603-r2" x="1159" y="727.6" textLength="97.6" clip-path="url(#terminal-2557652603-line-29)">&#160;palette</text>
    </g>
    </g>
</svg>
